<svg xmlns="http://www.w3.org/2000/svg" viewBox="0 0 512 512"><rect width="512" height="512" rx="112" fill="#080a0d"/><path d="M146 197h220c37 0 68 30 68 68v85c0 35-28 63-63 63-20 0-38-9-50-25l-25-33h-80l-25 33c-12 16-30 25-50 25-35 0-63-28-63-63v-85c0-38 30-68 68-68Z" fill="#f4f5f7"/><path d="M164 274h68M198 240v68" stroke="#080a0d" stroke-width="24" stroke-linecap="round"/><circle cx="329" cy="274" r="17" fill="#080a0d"/><circle cx="369" cy="310" r="17" fill="#080a0d"/><path d="M196 154h120" stroke="#f4f5f7" stroke-width="18" stroke-linecap="round"/></svg>
